<svg width="215" height="76" fill="none" xmlns="http://www.w3.org/2000/svg"><path d="M200.667.475H14.333C6.417.475 0 6.855 0 14.725v45.6c0 7.87 6.417 14.25 14.333 14.25h186.334c7.916 0 14.333-6.38 14.333-14.25v-45.6c0-7.87-6.417-14.25-14.333-14.25z" fill="#fff"/><path d="M86.045 47.578V54c-.254.305-.646.635-1.176.991-.53.35-1.213.65-2.05.902-.835.252-1.847.379-3.034.379-1.052 0-2.012-.171-2.878-.513a6.218 6.218 0 01-2.24-1.525c-.619-.668-1.097-1.484-1.433-2.449-.335-.972-.503-2.082-.503-3.329v-1.013c0-1.247.16-2.356.48-3.328.33-.973.796-1.793 1.4-2.46a5.991 5.991 0 012.162-1.526c.836-.349 1.766-.523 2.788-.523 1.419 0 2.583.23 3.494.69.91.453 1.605 1.084 2.083 1.893.485.801.784 1.721.895 2.76h-3.258a4.127 4.127 0 00-.47-1.436 2.426 2.426 0 00-.997-.957c-.425-.23-.978-.345-1.657-.345-.56 0-1.06.115-1.5.345a2.964 2.964 0 00-1.098.99c-.299.439-.526.98-.683 1.626-.157.646-.235 1.396-.235 2.249v1.035c0 .846.082 1.596.246 2.25.164.645.407 1.19.728 1.636a3.15 3.15 0 001.21.99c.477.223 1.033.334 1.668.334.53 0 .97-.044 1.321-.133a3.33 3.33 0 00.862-.323c.224-.133.396-.26.515-.378V49.96h-3.068v-2.382h6.428zm1.993 2.572v-.234c0-.883.127-1.696.38-2.438a5.633 5.633 0 011.11-1.949 4.967 4.967 0 011.79-1.28c.71-.312 1.524-.467 2.442-.467.918 0 1.736.155 2.453.467a4.946 4.946 0 011.802 1.28c.493.55.866 1.199 1.12 1.949.254.742.38 1.554.38 2.438v.234c0 .875-.126 1.688-.38 2.438a5.673 5.673 0 01-1.12 1.948 4.965 4.965 0 01-1.791 1.28c-.71.304-1.523.456-2.441.456-.919 0-1.736-.151-2.453-.456a5.074 5.074 0 01-1.803-1.28 5.774 5.774 0 01-1.108-1.948 7.556 7.556 0 01-.381-2.438zm3.225-.234v.234c0 .504.045.976.134 1.413.09.438.232.824.426 1.158a2.2 2.2 0 00.784.768c.32.186.713.279 1.176.279.448 0 .832-.093 1.153-.279a2.12 2.12 0 00.772-.768c.195-.334.337-.72.426-1.157.097-.438.146-.91.146-1.414v-.234c0-.49-.049-.95-.146-1.38a3.63 3.63 0 00-.437-1.159 2.16 2.16 0 00-.772-.801c-.321-.193-.71-.29-1.165-.29-.455 0-.844.097-1.164.29-.314.193-.572.46-.773.801a3.82 3.82 0 00-.426 1.158c-.09.43-.134.891-.134 1.38zm9.72.234v-.234c0-.883.127-1.696.381-2.438a5.62 5.62 0 011.108-1.949 4.968 4.968 0 011.792-1.28c.709-.312 1.523-.467 2.441-.467.918 0 1.736.155 2.452.467a4.942 4.942 0 011.803 1.28c.493.55.866 1.199 1.12 1.949.254.742.381 1.554.381 2.438v.234a7.55 7.55 0 01-.381 2.438 5.672 5.672 0 01-1.12 1.948 4.963 4.963 0 01-1.791 1.28c-.71.304-1.523.456-2.442.456-.918 0-1.735-.151-2.452-.456a5.078 5.078 0 01-1.803-1.28 5.76 5.76 0 01-1.108-1.948 7.55 7.55 0 01-.381-2.438zm3.225-.234v.234c0 .504.045.976.134 1.413.09.438.232.824.426 1.158a2.2 2.2 0 00.784.768c.321.186.712.279 1.175.279.448 0 .833-.093 1.154-.279.321-.185.578-.441.772-.768a3.82 3.82 0 00.426-1.157c.097-.438.145-.91.145-1.414v-.234c0-.49-.048-.95-.145-1.38a3.63 3.63 0 00-.437-1.159 2.153 2.153 0 00-.773-.801c-.32-.193-.709-.29-1.164-.29-.455 0-.844.097-1.165.29a2.28 2.28 0 00-.772.801 3.82 3.82 0 00-.426 1.158 6.81 6.81 0 00-.134 1.38zm17.905-5.912h2.923V55.65c0 1.099-.246 2.03-.739 2.794-.485.772-1.165 1.355-2.038 1.748-.874.401-1.889.601-3.046.601a7.035 7.035 0 01-1.612-.2 6.47 6.47 0 01-1.613-.623 4.258 4.258 0 01-1.277-1.07l1.423-1.892c.373.43.806.765 1.299 1.002a3.615 3.615 0 001.634.368c.583 0 1.075-.108 1.479-.323a2.14 2.14 0 00.929-.924c.216-.4.325-.887.325-1.459v-8.883l.313-2.784zm-8.152 6.168v-.234c0-.92.112-1.755.336-2.505.231-.757.556-1.406.974-1.948a4.428 4.428 0 011.546-1.258c.604-.297 1.287-.445 2.049-.445.806 0 1.482.148 2.027.445.545.297.993.72 1.343 1.27.351.54.624 1.183.818 1.925.201.735.358 1.54.47 2.416v.512c-.112.839-.28 1.618-.504 2.338a7.191 7.191 0 01-.884 1.892 3.91 3.91 0 01-1.367 1.247c-.537.297-1.179.446-1.925.446-.747 0-1.423-.153-2.027-.457a4.507 4.507 0 01-1.534-1.28 6.07 6.07 0 01-.986-1.937 8.367 8.367 0 01-.336-2.427zm3.225-.234v.234c0 .497.049.961.146 1.392.097.43.246.812.448 1.146.209.327.466.583.772.768.314.178.683.267 1.109.267.59 0 1.071-.122 1.444-.367a2.3 2.3 0 00.84-1.035c.187-.438.295-.943.325-1.514V49.37a4.9 4.9 0 00-.19-1.258 3.002 3.002 0 00-.471-.968 2.03 2.03 0 00-.783-.624c-.322-.148-.702-.223-1.143-.223-.425 0-.795.097-1.108.29a2.381 2.381 0 00-.773.768 3.878 3.878 0 00-.459 1.158 6.105 6.105 0 00-.157 1.425zm13.762-10.988v17.1h-3.236v-17.1h3.236zm8.242 17.322c-.941 0-1.784-.148-2.531-.445a5.557 5.557 0 01-1.903-1.258 5.584 5.584 0 01-1.187-1.859 6.232 6.232 0 01-.415-2.271v-.445c0-.913.131-1.748.392-2.505a5.899 5.899 0 011.12-1.97 4.921 4.921 0 011.792-1.281c.702-.304 1.493-.456 2.374-.456.858 0 1.62.14 2.284.423a4.474 4.474 0 011.669 1.202c.455.52.798 1.143 1.03 1.87.231.72.347 1.522.347 2.405v1.336h-9.63V48.88h6.461v-.245a2.76 2.76 0 00-.246-1.19 1.896 1.896 0 00-.717-.847c-.321-.208-.732-.312-1.232-.312-.425 0-.791.093-1.097.279a2.155 2.155 0 00-.75.78 4.212 4.212 0 00-.426 1.18c-.09.444-.134.934-.134 1.469v.445c0 .482.067.928.201 1.336.142.408.34.76.594 1.058.261.296.575.527.94.69.374.163.795.245 1.266.245.582 0 1.123-.112 1.623-.334.508-.23.945-.575 1.311-1.036l1.568 1.693c-.254.363-.602.712-1.042 1.046a5.575 5.575 0 01-1.568.824c-.612.208-1.31.312-2.094.312zm19.07-6h-4.154v-2.605h4.154c.642 0 1.165-.104 1.568-.312a2 2 0 00.884-.89 2.85 2.85 0 00.28-1.28c0-.483-.093-.932-.28-1.348a2.247 2.247 0 00-.884-1.002c-.403-.252-.926-.378-1.568-.378h-2.99V56.05h-3.36V39.84h6.35c1.277 0 2.371.23 3.281.69.919.454 1.62 1.08 2.106 1.882.484.802.728 1.718.728 2.75 0 1.047-.244 1.952-.728 2.716-.486.765-1.187 1.355-2.106 1.77-.91.416-2.004.624-3.281.624zm11.634-11.322v17.1h-3.236v-17.1h3.236zm9.205 14.384v-5.367c0-.385-.063-.716-.19-.99a1.401 1.401 0 00-.594-.657c-.261-.156-.6-.234-1.019-.234-.358 0-.668.063-.929.19a1.347 1.347 0 00-.605.523 1.447 1.447 0 00-.212.79h-3.225c0-.512.119-.998.359-1.458a3.62 3.62 0 011.04-1.214 5.152 5.152 0 011.624-.835c.635-.2 1.343-.3 2.127-.3.942 0 1.778.155 2.509.467.732.312 1.307.78 1.724 1.403.426.623.639 1.403.639 2.338v5.154c0 .66.04 1.203.123 1.626.082.415.201.779.359 1.09v.19h-3.26c-.156-.327-.275-.735-.358-1.225a10.122 10.122 0 01-.112-1.491zm.426-4.62l.023 1.814h-1.803c-.426 0-.796.048-1.11.145-.312.096-.57.234-.772.412-.201.17-.35.37-.447.6a2.04 2.04 0 00-.135.758c0 .275.063.523.191.746.126.215.309.386.548.512.238.119.519.178.84.178.485 0 .906-.096 1.265-.29.358-.192.635-.43.83-.712.2-.282.305-.55.312-.802l.851 1.359c-.119.304-.283.62-.493.946-.2.327-.458.634-.772.924a4.006 4.006 0 01-1.131.701c-.44.179-.963.267-1.568.267-.768 0-1.467-.151-2.093-.456a3.797 3.797 0 01-1.479-1.28 3.35 3.35 0 01-.538-1.87c0-.631.121-1.192.359-1.681.239-.49.59-.902 1.053-1.236.47-.342 1.057-.598 1.758-.768.702-.178 1.515-.267 2.44-.267h1.871zm8.723 5.978l3.214-10.688h3.46l-4.871 13.86a7.405 7.405 0 01-.425.98c-.172.35-.407.68-.706.991-.291.32-.66.579-1.109.78-.44.2-.982.3-1.624.3a4.13 4.13 0 01-.75-.056 13.141 13.141 0 01-.693-.156v-2.349H185c.091.008.177.012.258.012.426 0 .773-.049 1.042-.145a1.47 1.47 0 00.65-.445 2.18 2.18 0 00.391-.758l.907-2.326zm-1.344-10.688l2.631 8.728.46 3.396-2.195.234-4.356-12.358h3.46zM80.838 26.61h1.033c-.084.818-.31 1.525-.68 2.12a3.676 3.676 0 01-1.512 1.361c-.638.318-1.408.476-2.31.476-.694 0-1.324-.13-1.89-.392a4.184 4.184 0 01-1.444-1.11 5.175 5.175 0 01-.932-1.737c-.218-.674-.328-1.423-.328-2.247v-1.52c0-.823.11-1.569.328-2.237a5.091 5.091 0 01.94-1.737 4.18 4.18 0 011.47-1.118c.571-.262 1.215-.393 1.932-.393.868 0 1.618.159 2.25.476a3.574 3.574 0 011.496 1.353c.37.59.596 1.302.68 2.137h-1.033c-.078-.657-.252-1.213-.52-1.67A2.652 2.652 0 0079.2 19.33c-.47-.245-1.055-.368-1.755-.368-.571 0-1.08.109-1.529.326a3.18 3.18 0 00-1.142.935 4.33 4.33 0 00-.722 1.444 6.76 6.76 0 00-.244 1.88v1.535c0 .668.079 1.284.236 1.846.156.562.386 1.049.688 1.46.308.413.683.733 1.126.961.442.228.946.343 1.511.343.723 0 1.325-.115 1.806-.343a2.58 2.58 0 001.134-1.035c.269-.457.445-1.024.529-1.704zm4.384-5.244V30.4h-1.008v-9.034h1.008zm5.98 0l-4.166 4.893H84.87l-.109-.894h1.848l3.325-4h1.269zm-.907 9.034l-3.788-4.275.638-.768 4.477 5.043h-1.327zm8.306-1.62v-4.659c0-.428-.09-.798-.27-1.11a1.766 1.766 0 00-.789-.718c-.347-.167-.775-.25-1.285-.25-.47 0-.89.083-1.26.25a2.17 2.17 0 00-.864.66 1.47 1.47 0 00-.311.91l-1.008-.009c0-.34.084-.668.252-.985.168-.317.406-.601.714-.852.308-.25.675-.448 1.1-.593.431-.15.904-.225 1.42-.225.649 0 1.22.108 1.713.325.498.218.887.543 1.167.977.28.435.42.98.42 1.637v4.367c0 .312.022.634.067.968.05.334.12.61.21.827v.1h-1.066c-.068-.2-.12-.45-.16-.751a7.954 7.954 0 01-.05-.869zm.235-3.64l.017.768h-1.974c-.515 0-.977.047-1.386.142a3.17 3.17 0 00-1.024.4c-.28.173-.496.382-.647.627a1.603 1.603 0 00-.218.835c0 .323.08.618.243.885.168.267.403.482.706.643.308.156.671.234 1.091.234.56 0 1.053-.103 1.479-.31a3.125 3.125 0 001.066-.81c.28-.333.468-.698.563-1.093l.437.576a2.893 2.893 0 01-.404.86c-.19.29-.44.562-.747.818-.308.25-.672.457-1.092.618a3.985 3.985 0 01-1.41.234c-.594 0-1.112-.111-1.554-.334a2.578 2.578 0 01-1.025-.91c-.24-.39-.361-.83-.361-1.32 0-.444.095-.843.285-1.193a2.53 2.53 0 01.823-.902 4.03 4.03 0 011.31-.568 6.895 6.895 0 011.73-.2h2.092zm9.918-3.774V30.4h-.999v-9.034h.999zm-.344 4.1v.86a7.73 7.73 0 01-.89.35c-.331.112-.68.203-1.05.276a6.02 6.02 0 01-1.092.1c-.75 0-1.386-.109-1.906-.326a2.3 2.3 0 01-1.168-1.068c-.263-.501-.394-1.17-.394-2.004v-2.296h.999v2.296c0 .64.09 1.146.269 1.52.179.367.45.628.814.784.364.156.826.234 1.386.234.387-.011.77-.05 1.151-.117a8.575 8.575 0 001.058-.267 5.42 5.42 0 00.823-.343zm8.566 3.314v-4.659c0-.428-.089-.798-.268-1.11a1.772 1.772 0 00-.79-.718c-.347-.167-.775-.25-1.285-.25-.47 0-.89.083-1.259.25a2.174 2.174 0 00-.866.66 1.47 1.47 0 00-.31.91l-1.008-.009c0-.34.084-.668.252-.985.168-.317.406-.601.714-.852a3.51 3.51 0 011.1-.593c.431-.15.904-.225 1.419-.225.65 0 1.221.108 1.714.325.498.218.887.543 1.167.977.28.435.42.98.42 1.637v4.367c0 .312.022.634.067.968.05.334.12.61.21.827v.1h-1.067c-.067-.2-.12-.45-.159-.751a7.885 7.885 0 01-.051-.869zm.236-3.64l.016.768h-1.973c-.515 0-.977.047-1.386.142-.403.09-.745.223-1.025.4-.28.173-.495.382-.646.627a1.6 1.6 0 00-.219.835c0 .323.081.618.244.885.168.267.403.482.705.643.308.156.672.234 1.092.234.56 0 1.053-.103 1.478-.31a3.128 3.128 0 001.067-.81 2.66 2.66 0 00.563-1.093l.436.576a2.87 2.87 0 01-.403.86c-.19.29-.439.562-.747.818-.308.25-.672.457-1.092.618a3.986 3.986 0 01-1.411.234c-.593 0-1.111-.111-1.554-.334a2.578 2.578 0 01-1.024-.91 2.456 2.456 0 01-.361-1.32c0-.444.095-.843.285-1.193a2.53 2.53 0 01.823-.902 4.03 4.03 0 011.31-.568 6.897 6.897 0 011.73-.2h2.092zm4.518 3.64l4.913-7.414h1.008V30.4h-1.008v-7.414L121.73 30.4h-.991v-9.034h.991v7.414zm3.989-10.654h.857c0 .418-.098.788-.294 1.11-.19.324-.468.577-.832.76-.364.184-.795.276-1.293.276-.75 0-1.344-.2-1.78-.601-.432-.4-.647-.916-.647-1.545h.848c0 .384.118.718.353 1.002.241.279.649.418 1.226.418.56 0 .96-.142 1.201-.426.241-.284.361-.615.361-.994zm7.836 3.24V30.4h-.999v-9.034h.999zm3.309 0v.852h-7.5v-.852h7.5zm4.502 9.201a4.04 4.04 0 01-1.638-.326 3.917 3.917 0 01-1.294-.918 4.233 4.233 0 01-.848-1.403 5.249 5.249 0 01-.294-1.786v-.36c0-.695.104-1.324.311-1.887a4.365 4.365 0 01.857-1.444 3.81 3.81 0 011.243-.919c.47-.217.963-.325 1.478-.325.576 0 1.089.103 1.537.309.448.2.823.487 1.124.86.309.367.541.804.698 1.31.157.502.235 1.055.235 1.662v.61h-6.878v-.852h5.879v-.117a3.627 3.627 0 00-.311-1.42 2.563 2.563 0 00-.857-1.085c-.38-.278-.856-.417-1.427-.417-.426 0-.818.089-1.176.267a2.66 2.66 0 00-.915.768 3.701 3.701 0 00-.588 1.177 5.23 5.23 0 00-.202 1.503v.36c0 .5.073.968.218 1.402.152.429.364.807.639 1.136.28.328.61.584.991.768.38.184.8.275 1.259.275.538 0 1.014-.097 1.428-.292.415-.2.787-.515 1.118-.943l.629.484a3.82 3.82 0 01-.74.802c-.291.245-.64.44-1.049.584-.408.145-.884.217-1.427.217zm13.605-4.333h-3.191l-.017-.835h2.72c.549 0 1.005-.059 1.369-.176.37-.122.648-.303.832-.542.19-.24.286-.535.286-.885 0-.268-.056-.501-.169-.702a1.247 1.247 0 00-.486-.492 2.437 2.437 0 00-.807-.284 5.496 5.496 0 00-1.116-.1h-2.327V30.4h-.999v-9.034h3.326c.554 0 1.049.05 1.486.15.443.095.82.24 1.134.434.314.195.552.446.714.752.167.3.252.657.252 1.069a1.917 1.917 0 01-.631 1.436c-.2.189-.45.345-.747.467-.296.117-.637.19-1.024.217l-.605.343zm0 4.166h-3.502l.386-.852h3.116c.504 0 .933-.064 1.285-.191.353-.129.618-.318.797-.568.185-.25.278-.554.278-.91a1.4 1.4 0 00-.278-.869c-.179-.245-.444-.434-.797-.568-.352-.139-.781-.208-1.285-.208h-2.318l.017-.835h2.982l.428.317a2.69 2.69 0 011.193.367c.335.206.596.468.781.785.183.312.276.654.276 1.027 0 .412-.078.777-.235 1.094a2.138 2.138 0 01-.68.785 3.173 3.173 0 01-1.058.467 5.602 5.602 0 01-1.386.16z" fill="#000"/><path d="M21.47 16.107a3.306 3.306 0 00-.778 2.33v36.756c-.047.845.23 1.678.778 2.33l.127.125 20.856-20.596v-.488L21.597 15.982l-.127.125z" fill="url(#paint0_linear_17_380)"/><path d="M49.41 43.918l-6.957-6.866v-.488l6.957-6.852.156.084 8.243 4.619c2.361 1.312 2.361 3.474 0 4.8l-8.243 4.619-.156.084z" fill="url(#paint1_linear_17_380)"/><path d="M49.566 43.834l-7.07-6.977L21.47 57.523a2.853 2.853 0 003.464.098l24.589-13.787" fill="url(#paint2_linear_17_380)"/><path d="M49.566 29.796l-24.632-13.8a2.754 2.754 0 00-3.464.111l20.983 20.708 7.112-7.019z" fill="url(#paint3_linear_17_380)"/><path opacity=".1" d="M49.41 43.68L24.934 57.385a2.853 2.853 0 01-3.38 0l-.127.125.128.126a2.853 2.853 0 003.38 0l24.588-13.787-.113-.167z" fill="#000"/><path opacity=".07" d="M21.47 57.3a3.361 3.361 0 01-.778-2.344v.237c-.047.846.23 1.678.778 2.33l.127-.125-.127-.098zm36.339-18.336l-8.4 4.717.157.153 8.243-4.675c.483-.21.902-.542 1.212-.964a2.92 2.92 0 00.555-1.436 3.06 3.06 0 01-.614 1.313 3.12 3.12 0 01-1.153.892z" fill="#000"/><path opacity=".3" d="M24.934 16.247L57.81 34.652c.446.198.839.497 1.146.873.307.376.52.818.621 1.29a2.893 2.893 0 00-.551-1.438 2.948 2.948 0 00-1.216-.962l-32.875-18.42c-2.319-1.311-4.242-.223-4.242 2.443v.237c0-2.651 1.923-3.754 4.242-2.428z" fill="#fff"/><defs><linearGradient id="paint0_linear_17_380" x1="40.615" y1="18.047" x2="12.723" y2="46.31" gradientUnits="userSpaceOnUse"><stop stop-color="#008EFF"/><stop offset=".01" stop-color="#008FFF"/><stop offset=".26" stop-color="#00ACFF"/><stop offset=".51" stop-color="#00C0FF"/><stop offset=".76" stop-color="#00CDFF"/><stop offset="1" stop-color="#00D1FF"/></linearGradient><linearGradient id="paint1_linear_17_380" x1="58.092" y1="36.815" x2="17.341" y2="36.815" gradientUnits="userSpaceOnUse"><stop stop-color="#FFD800"/><stop offset="1" stop-color="#FF8A00"/></linearGradient><linearGradient id="paint2_linear_17_380" x1="45.705" y1="40.624" x2="7.893" y2="78.94" gradientUnits="userSpaceOnUse"><stop stop-color="#FF3A44"/><stop offset="1" stop-color="#B11162"/></linearGradient><linearGradient id="paint3_linear_17_380" x1="16.182" y1="3.869" x2="33.079" y2="20.977" gradientUnits="userSpaceOnUse"><stop stop-color="#328E71"/><stop offset=".07" stop-color="#2D9571"/><stop offset=".48" stop-color="#15BD74"/><stop offset=".8" stop-color="#06D575"/><stop offset="1" stop-color="#00DE76"/></linearGradient></defs></svg>