<svg width="215" height="76" fill="none" xmlns="http://www.w3.org/2000/svg"><path d="M200.667.475H14.333C6.417.475 0 6.855 0 14.725v45.6c0 7.87 6.417 14.25 14.333 14.25h186.334c7.916 0 14.333-6.38 14.333-14.25v-45.6c0-7.87-6.417-14.25-14.333-14.25z" fill="#fff"/><path d="M37.662 17.5l1.51-2.594c.93-1.621 3.008-2.168 4.639-1.241a3.365 3.365 0 011.248 4.613L30.516 43.305h10.519c3.41 0 5.32 3.983 3.838 6.743H14.035a3.37 3.37 0 01-3.391-3.372 3.37 3.37 0 013.39-3.371h8.647l11.068-19.072-3.457-5.965a3.37 3.37 0 011.249-4.613 3.41 3.41 0 014.64 1.242l1.48 2.602zm-13.08 36.02l-3.262 5.623c-.931 1.62-3.009 2.167-4.64 1.24a3.365 3.365 0 01-1.248-4.612l2.423-4.168c2.739-.843 4.965-.195 6.726 1.917zm28.08-10.198h8.823a3.37 3.37 0 013.39 3.372 3.37 3.37 0 01-3.39 3.371h-4.901l3.307 5.706a3.37 3.37 0 01-1.248 4.613 3.41 3.41 0 01-4.64-1.241c-5.571-9.606-9.754-16.793-12.53-21.582-2.842-4.872-.811-9.763 1.192-11.42 2.227 3.797 5.553 9.53 9.997 17.181z" fill="#0D92F6"/><path d="M89.785 42.613L85.35 56.05h-3.573l6.058-16.21h2.274l-.325 2.773zm3.684 13.437l-4.446-13.437-.358-2.772h2.295l6.092 16.21H93.47zm-.202-6.034v2.616h-8.61v-2.616h8.61zm7.962-3.696v14.361h-3.225V44.005h2.99l.235 2.315zm7.671 3.574v.233c0 .876-.105 1.689-.314 2.439a6.05 6.05 0 01-.896 1.959c-.395.55-.888.98-1.478 1.291-.582.305-1.254.457-2.015.457-.74 0-1.381-.149-1.926-.446a4.004 4.004 0 01-1.378-1.246 7.198 7.198 0 01-.885-1.882 14.837 14.837 0 01-.514-2.293v-.612c.119-.876.29-1.678.514-2.405.224-.735.519-1.37.885-1.904a4.001 4.001 0 011.366-1.258c.545-.297 1.184-.445 1.915-.445.769 0 1.445.145 2.027.434.59.29 1.082.705 1.478 1.247.403.542.706 1.187.907 1.937.209.75.314 1.58.314 2.494zm-3.236.233v-.233c0-.512-.045-.984-.135-1.414a3.64 3.64 0 00-.403-1.147 1.95 1.95 0 00-.717-.757c-.291-.185-.645-.278-1.063-.278-.441 0-.818.07-1.131.211a1.882 1.882 0 00-.751.613 2.83 2.83 0 00-.436.957c-.097.371-.157.79-.18 1.258v1.547c.038.55.142 1.043.314 1.481.172.43.437.772.795 1.024.358.253.829.379 1.411.379.425 0 .784-.093 1.075-.279a2.13 2.13 0 00.705-.79 3.57 3.57 0 00.392-1.158 7.68 7.68 0 00.124-1.413zm8.465-3.807v14.361h-3.225V44.005h2.99l.235 2.315zm7.671 3.574v.233c0 .876-.105 1.689-.314 2.439a6.05 6.05 0 01-.896 1.959c-.395.55-.888.98-1.478 1.291-.582.305-1.254.457-2.015.457-.74 0-1.381-.149-1.926-.446a4.004 4.004 0 01-1.378-1.246 7.198 7.198 0 01-.885-1.882 14.953 14.953 0 01-.515-2.293v-.612a15.3 15.3 0 01.515-2.405c.224-.735.519-1.37.885-1.904a4.001 4.001 0 011.366-1.258c.545-.297 1.184-.445 1.915-.445.769 0 1.445.145 2.027.434.59.29 1.082.705 1.478 1.247.403.542.706 1.187.907 1.937.209.75.314 1.58.314 2.494zm-3.236.233v-.233c0-.512-.045-.984-.135-1.414a3.64 3.64 0 00-.403-1.147 1.95 1.95 0 00-.717-.757c-.291-.185-.645-.278-1.063-.278-.441 0-.818.07-1.131.211a1.882 1.882 0 00-.751.613 2.83 2.83 0 00-.436.957c-.097.371-.157.79-.18 1.258v1.547c.038.55.142 1.043.314 1.481.172.43.437.772.795 1.024.358.253.829.379 1.411.379.425 0 .784-.093 1.075-.279a2.13 2.13 0 00.705-.79 3.57 3.57 0 00.392-1.158 7.68 7.68 0 00.124-1.413zm19.641 1.681c0-.289-.045-.549-.135-.779a1.474 1.474 0 00-.47-.646c-.232-.2-.556-.397-.974-.59-.418-.192-.96-.393-1.624-.6a20.584 20.584 0 01-2.105-.802 8.66 8.66 0 01-1.747-1.036c-.5-.4-.896-.864-1.187-1.391-.284-.527-.426-1.14-.426-1.837 0-.675.15-1.288.448-1.837a4.236 4.236 0 011.255-1.425 5.98 5.98 0 011.903-.924 8.67 8.67 0 012.43-.323c1.202 0 2.251.215 3.147.646.895.43 1.59 1.02 2.083 1.77.5.75.75 1.607.75 2.572h-3.337c0-.475-.101-.891-.302-1.247a2.045 2.045 0 00-.896-.858c-.396-.207-.896-.311-1.501-.311-.582 0-1.067.089-1.456.267-.388.17-.679.404-.873.701a1.72 1.72 0 00-.291.98c0 .275.067.523.201.746.142.223.351.43.627.623.277.193.616.375 1.019.546.404.17.87.338 1.4.5.889.268 1.669.569 2.341.903.679.333 1.246.708 1.702 1.124.455.416.798.887 1.03 1.414.231.527.347 1.124.347 1.792 0 .705-.138 1.336-.414 1.893a3.889 3.889 0 01-1.199 1.414c-.522.386-1.145.679-1.87.88-.724.2-1.534.3-2.43.3a9.275 9.275 0 01-2.385-.312 7.256 7.256 0 01-2.138-.968 4.882 4.882 0 01-1.523-1.648c-.381-.668-.572-1.459-.572-2.371h3.371c0 .504.078.93.235 1.28.157.349.377.63.661.846.291.215.634.371 1.03.468.403.096.844.144 1.321.144.583 0 1.061-.081 1.434-.245.38-.163.661-.39.84-.679.186-.29.28-.616.28-.98zm11.376-7.803v2.27h-7.054v-2.27h7.054zm-5.307-2.973h3.225V52.42c0 .349.045.616.134.801a.81.81 0 00.426.39c.186.067.421.1.705.1.202 0 .381-.007.538-.022a7 7 0 00.414-.067l.011 2.36a5.96 5.96 0 01-.895.212 6.704 6.704 0 01-1.064.078c-.71 0-1.329-.115-1.859-.345a2.555 2.555 0 01-1.21-1.136c-.284-.52-.425-1.202-.425-2.048V41.032zm6.338 9.118v-.234c0-.883.127-1.696.381-2.438.254-.75.623-1.4 1.108-1.948a4.968 4.968 0 011.792-1.28c.709-.312 1.523-.468 2.441-.468.918 0 1.735.156 2.452.467a4.933 4.933 0 011.803 1.28c.493.55.866 1.2 1.12 1.949.253.742.381 1.555.381 2.438v.234c0 .876-.128 1.688-.381 2.438a5.673 5.673 0 01-1.12 1.948 4.955 4.955 0 01-1.791 1.28c-.71.305-1.523.457-2.441.457-.919 0-1.736-.152-2.453-.457a5.08 5.08 0 01-1.803-1.28 5.778 5.778 0 01-1.108-1.948 7.55 7.55 0 01-.381-2.438zm3.225-.234v.234c0 .504.044.976.134 1.414.089.438.231.823.426 1.157.201.327.463.583.784.769.321.185.713.278 1.176.278.447 0 .832-.093 1.153-.279.321-.185.578-.441.773-.767.193-.335.335-.72.426-1.158.096-.438.144-.91.144-1.414v-.234c0-.49-.048-.95-.144-1.38a3.678 3.678 0 00-.438-1.158 2.159 2.159 0 00-.772-.802c-.321-.193-.71-.29-1.165-.29-.455 0-.843.097-1.164.29-.314.193-.572.46-.773.802-.195.334-.337.72-.426 1.157-.09.43-.134.891-.134 1.38zm13.46-3.284v9.418h-3.225V44.005h3.035l.19 2.627zm3.651-2.706l-.056 2.973a8.01 8.01 0 00-.572-.056 5.816 5.816 0 00-.593-.033c-.456 0-.852.06-1.187.178a2.125 2.125 0 00-.829.501 2.191 2.191 0 00-.493.813 3.95 3.95 0 00-.179 1.09l-.649-.2c0-.779.079-1.495.235-2.148a5.86 5.86 0 01.684-1.726 3.4 3.4 0 011.119-1.135c.44-.268.945-.401 1.511-.401.18 0 .362.015.549.044.188.023.339.056.46.1zm6.874 12.347c-.94 0-1.783-.149-2.53-.446a5.556 5.556 0 01-1.903-1.258 5.553 5.553 0 01-1.187-1.859 6.21 6.21 0 01-.414-2.27v-.446c0-.913.13-1.748.391-2.505a5.88 5.88 0 011.12-1.97 4.925 4.925 0 011.791-1.28c.703-.305 1.494-.457 2.374-.457.858 0 1.621.14 2.285.423a4.462 4.462 0 011.668 1.202c.456.52.8 1.143 1.03 1.87.233.72.347 1.522.347 2.405v1.336h-9.63v-2.137h6.461v-.245c0-.446-.081-.843-.246-1.192a1.89 1.89 0 00-.717-.846c-.321-.207-.731-.311-1.231-.311-.426 0-.791.092-1.098.278a2.165 2.165 0 00-.75.78 4.242 4.242 0 00-.425 1.18 7.505 7.505 0 00-.135 1.469v.445c0 .483.067.928.202 1.336.142.408.34.76.593 1.058a2.7 2.7 0 00.941.69 3.13 3.13 0 001.265.245 3.95 3.95 0 001.624-.334c.508-.23.945-.575 1.31-1.035l1.568 1.692c-.253.363-.602.712-1.042 1.046a5.548 5.548 0 01-1.568.824c-.612.208-1.31.312-2.094.312zM90.871 26.61h1.033c-.084.818-.31 1.525-.68 2.12a3.676 3.676 0 01-1.512 1.361c-.638.318-1.408.476-2.31.476-.694 0-1.323-.13-1.889-.392a4.184 4.184 0 01-1.445-1.11 5.173 5.173 0 01-.932-1.737c-.218-.674-.327-1.423-.327-2.247v-1.52c0-.823.109-1.569.327-2.237a5.09 5.09 0 01.94-1.737 4.18 4.18 0 011.47-1.118c.572-.262 1.215-.393 1.932-.393.868 0 1.618.159 2.251.476.633.312 1.13.763 1.495 1.353.37.59.596 1.302.68 2.137h-1.033c-.078-.657-.252-1.213-.52-1.67a2.652 2.652 0 00-1.117-1.043c-.47-.245-1.056-.368-1.756-.368-.57 0-1.08.109-1.528.326a3.18 3.18 0 00-1.142.935c-.314.4-.555.882-.723 1.444a6.76 6.76 0 00-.243 1.88v1.535c0 .668.078 1.284.235 1.846.157.562.386 1.049.689 1.46a3.23 3.23 0 001.125.961c.442.228.946.343 1.512.343.722 0 1.324-.115 1.805-.343a2.58 2.58 0 001.134-1.035c.269-.457.445-1.024.53-1.704zm4.384-5.244V30.4h-1.008v-9.034h1.008zm5.98 0l-4.166 4.893h-2.167l-.109-.894h1.848l3.326-4h1.268zm-.907 9.034l-3.788-4.275.638-.768 4.477 5.043h-1.327zm8.306-1.62v-4.659c0-.428-.09-.798-.269-1.11a1.764 1.764 0 00-.789-.718c-.348-.167-.776-.25-1.285-.25-.471 0-.89.083-1.26.25a2.17 2.17 0 00-.865.66 1.47 1.47 0 00-.311.91l-1.008-.009c0-.34.084-.668.252-.985.168-.317.406-.601.714-.852.308-.25.675-.448 1.1-.593.431-.15.905-.225 1.42-.225.649 0 1.22.108 1.713.325.498.218.887.543 1.167.977.28.435.42.98.42 1.637v4.367c0 .312.023.634.068.968.05.334.12.61.209.827v.1h-1.066c-.067-.2-.121-.45-.16-.751a8.127 8.127 0 01-.05-.869zm.235-3.64l.017.768h-1.974c-.515 0-.977.047-1.386.142-.403.09-.744.223-1.024.4a1.93 1.93 0 00-.647.627 1.608 1.608 0 00-.218.835c0 .323.081.618.243.885.168.267.404.482.706.643.308.156.672.234 1.092.234.559 0 1.052-.103 1.478-.31a3.124 3.124 0 001.066-.81c.28-.333.468-.698.563-1.093l.437.576a2.894 2.894 0 01-.403.86c-.191.29-.44.562-.748.818-.308.25-.672.457-1.092.618a3.982 3.982 0 01-1.411.234c-.593 0-1.111-.111-1.553-.334a2.574 2.574 0 01-1.025-.91 2.456 2.456 0 01-.361-1.32c0-.444.095-.843.286-1.193.19-.356.464-.657.823-.902.363-.25.8-.44 1.31-.568a6.897 6.897 0 011.73-.2h2.091zm9.919-3.774V30.4h-1v-9.034h1zm-.345 4.1v.86a7.73 7.73 0 01-.89.35 8.21 8.21 0 01-1.05.276 6.02 6.02 0 01-1.092.1c-.75 0-1.385-.109-1.906-.326a2.295 2.295 0 01-1.167-1.068c-.264-.501-.395-1.17-.395-2.004v-2.296h.999v2.296c0 .64.09 1.146.269 1.52.179.367.451.628.815.784.364.156.825.234 1.385.234.387-.011.77-.05 1.151-.117a8.575 8.575 0 001.058-.267 5.42 5.42 0 00.823-.343zm8.567 3.314v-4.659c0-.428-.09-.798-.269-1.11a1.761 1.761 0 00-.79-.718c-.347-.167-.775-.25-1.284-.25-.471 0-.891.083-1.26.25a2.164 2.164 0 00-.865.66 1.464 1.464 0 00-.311.91l-1.008-.009c0-.34.084-.668.252-.985.168-.317.406-.601.714-.852.308-.25.675-.448 1.1-.593.431-.15.904-.225 1.42-.225.649 0 1.22.108 1.713.325.498.218.887.543 1.167.977.28.435.42.98.42 1.637v4.367c0 .312.022.634.067.968.051.334.121.61.21.827v.1h-1.066c-.068-.2-.121-.45-.16-.751a7.874 7.874 0 01-.05-.869zm.235-3.64l.017.768h-1.974c-.515 0-.977.047-1.386.142-.403.09-.744.223-1.024.4a1.93 1.93 0 00-.647.627 1.599 1.599 0 00-.218.835c0 .323.081.618.243.885.168.267.403.482.706.643.308.156.672.234 1.091.234.56 0 1.053-.103 1.479-.31a3.124 3.124 0 001.066-.81c.28-.333.468-.698.563-1.093l.437.576a2.899 2.899 0 01-.404.86c-.19.29-.439.562-.747.818-.308.25-.672.457-1.092.618a3.986 3.986 0 01-1.411.234c-.593 0-1.111-.111-1.553-.334a2.574 2.574 0 01-1.025-.91 2.456 2.456 0 01-.361-1.32c0-.444.095-.843.285-1.193a2.54 2.54 0 01.823-.902c.364-.25.801-.44 1.311-.568a6.891 6.891 0 011.73-.2h2.091zm4.518 3.64l4.913-7.414h1.008V30.4h-1.008v-7.414l-4.913 7.414h-.991v-9.034h.991v7.414zm3.989-10.654h.857c0 .418-.098.788-.294 1.11a1.96 1.96 0 01-.831.76c-.364.184-.795.276-1.294.276-.75 0-1.343-.2-1.78-.601-.431-.4-.647-.916-.647-1.545h.848c0 .384.118.718.353 1.002.241.279.65.418 1.226.418.56 0 .96-.142 1.201-.426.241-.284.361-.615.361-.994zm7.837 3.24V30.4h-1v-9.034h1zm3.308 0v.852h-7.5v-.852h7.5zm4.502 9.201c-.594 0-1.14-.108-1.639-.326a3.92 3.92 0 01-1.292-.918 4.235 4.235 0 01-.849-1.403 5.273 5.273 0 01-.294-1.786v-.36c0-.695.103-1.324.311-1.887a4.365 4.365 0 01.857-1.444 3.82 3.82 0 011.243-.919c.47-.217.963-.325 1.478-.325.576 0 1.089.103 1.536.309.449.2.825.487 1.126.86.308.367.54.804.698 1.31a5.57 5.57 0 01.235 1.662v.61h-6.879v-.852h5.88v-.117a3.663 3.663 0 00-.311-1.42 2.565 2.565 0 00-.858-1.085c-.379-.278-.857-.417-1.427-.417a2.6 2.6 0 00-1.175.267 2.673 2.673 0 00-.916.768 3.68 3.68 0 00-.588 1.177 5.23 5.23 0 00-.202 1.503v.36c0 .5.073.968.219 1.402.151.429.364.807.638 1.136.279.328.611.584.99.768.382.184.802.275 1.26.275.538 0 1.014-.097 1.428-.292.414-.2.787-.515 1.118-.943l.629.484c-.196.29-.443.557-.739.802-.291.245-.641.44-1.05.584-.408.145-.884.217-1.427.217zm13.605-4.333h-3.191l-.017-.835h2.721c.549 0 1.004-.059 1.368-.176.37-.122.648-.303.832-.542.19-.24.286-.535.286-.885 0-.268-.055-.501-.169-.702a1.247 1.247 0 00-.486-.492 2.437 2.437 0 00-.807-.284c-.319-.067-.69-.1-1.116-.1h-2.326V30.4h-.999v-9.034h3.325c.555 0 1.049.05 1.486.15.443.095.82.24 1.134.434.314.195.552.446.714.752.168.3.252.657.252 1.069 0 .278-.053.54-.16.784-.107.24-.263.457-.471.652-.2.189-.45.345-.746.467-.297.117-.638.19-1.025.217l-.605.343zm0 4.166h-3.502l.386-.852h3.116c.504 0 .933-.064 1.286-.191.352-.129.617-.318.797-.568.184-.25.278-.554.278-.91 0-.334-.094-.624-.278-.869-.18-.245-.445-.434-.797-.568-.353-.139-.782-.208-1.286-.208h-2.318l.017-.835h2.982l.428.317a2.69 2.69 0 011.193.367c.335.206.596.468.781.785.184.312.277.654.277 1.027 0 .412-.079.777-.235 1.094a2.15 2.15 0 01-.681.785 3.173 3.173 0 01-1.058.467 5.602 5.602 0 01-1.386.16z" fill="#000"/></svg>