<svg width="100" height="100" fill="none" xmlns="http://www.w3.org/2000/svg"><path d="M91.667 50c0 23.01-18.657 41.667-41.667 41.667S8.333 73.01 8.333 50 26.99 8.333 50 8.333 91.667 26.99 91.667 50z" fill="url(#paint0_linear_17_428)"/><path opacity=".05" d="M21.081 48.888c16.99-7.698 36.944-16.05 40.017-17.259 6.775-2.664 9.729.058 9.267 4.402-.57 5.323-3.265 20.813-4.923 31.91-.971 6.494-4.488 8.484-8.457 5.965-3.01-1.91-13.36-8.687-16.083-11.004-1.856-1.58-3.15-3.35-1.833-5.154.385-.527 1.37-1.59 1.918-2.119 2.748-2.662 2.377-3.235-.945-.858-.396.283-2.692 1.948-3.636 2.577-2.312 1.542-4.44 1.625-8.046.4-2.95-1.002-5.783-1.775-7.57-2.548-2.47-1.069-3.415-4.633.291-6.313z" fill="#000"/><path opacity=".07" d="M22.575 49.148C38.35 42.096 57.75 34.015 60.587 32.87c6.8-2.746 9.302-1.117 8.571 4.19-.679 4.912-3.09 20.112-4.779 30.301-.996 5.998-3.904 7.32-7.692 4.87-2.372-1.53-11.922-7.822-14.24-9.653-1.79-1.414-3.647-3.048-1.478-5.412.725-.79 4.729-4.654 7.723-7.53 1.735-1.668 1.116-2.491-.977-1.058-3.84 2.631-10.121 6.796-11.242 7.552-2.136 1.438-4.142 1.784-7.633.686-2.753-.867-5.41-1.707-6.796-2.246-3.096-1.2-3.138-3.783.531-5.423z" fill="#000"/><path d="M24.069 49.41c14.562-6.406 33.406-14.216 36.008-15.297 6.823-2.83 8.917-2.288 7.873 3.979-.75 4.504-2.913 19.414-4.638 28.695-1.022 5.505-3.318 6.157-6.927 3.775-1.735-1.145-10.495-6.94-12.398-8.3-1.735-1.24-4.129-2.73-1.127-5.668 1.07-1.046 8.071-7.734 13.528-12.938.714-.683-.184-1.806-1.009-1.258-7.354 4.877-17.55 11.646-18.848 12.527-1.96 1.331-3.843 1.942-7.223.97-2.554-.733-5.048-1.608-6.018-1.94-3.74-1.284-2.852-2.947.779-4.545z" fill="#fff"/><defs><linearGradient id="paint0_linear_17_428" x1="20.537" y1="20.538" x2="79.462" y2="79.463" gradientUnits="userSpaceOnUse"><stop stop-color="#33BEF0"/><stop offset="1" stop-color="#0A85D9"/></linearGradient></defs></svg>