<svg width="100" height="100" fill="none" xmlns="http://www.w3.org/2000/svg"><path d="M50 8.333a41.667 41.667 0 100 83.333 41.667 41.667 0 000-83.333z" fill="#1976D2"/><path d="M74.869 37.585c.096-.314.141-.606.129-.866-.031-.755-.55-1.302-1.77-1.302h-5.455c-1.377 0-2.013.833-2.383 1.668 0 0-3.4 6.998-7.32 11.613C56.8 50.033 56.155 50 55.468 50c-.37 0-1.3-.446-1.3-1.669V37.53c0-1.446-.36-2.112-1.525-2.112h-9.686c-.848 0-1.29.666-1.29 1.335 0 1.39 1.872 1.723 2.084 5.617v7.548c0 1.833-.319 2.166-1.006 2.166-1.854 0-5.504-6.25-7.948-14.441-.53-1.613-1.059-2.225-2.436-2.225h-5.506c-1.59 0-1.854.779-1.854 1.612 0 1.502 1.25 9.623 8.073 18.96C38.02 62.76 44.54 66.668 50.31 66.668c3.496 0 3.855-.89 3.855-2.28v-6.191c.002-1.669.383-1.946 1.495-1.946.794 0 2.413.52 5.538 4.167 3.604 4.204 4.258 6.25 6.325 6.25h5.454c1.267 0 1.994-.532 2.023-1.563a3.208 3.208 0 00-.117-.883c-.404-1.2-2.258-4.134-4.57-6.93-1.282-1.547-2.546-3.08-3.128-3.914-.39-.544-.537-.927-.518-1.294.018-.385.218-.752.518-1.264-.054 0 6.996-9.898 7.684-13.234z" fill="#fff"/></svg>