<svg width="86" height="130" fill="none" xmlns="http://www.w3.org/2000/svg"><path d="M47.473 76.8l-10.201-1.64v43.98c0 1.551.61 3.039 1.695 4.136a5.758 5.758 0 004.093 1.714h.796a12.594 12.594 0 003.617-.536V76.8zm0-23.093V5.969a12.23 12.23 0 00-3.161-.415H43.06a5.761 5.761 0 00-4.092 1.715 5.885 5.885 0 00-1.696 4.135v43.979l10.2-1.676zm20.63 63.636V12.723a11.79 11.79 0 00-3.387-8.289A11.539 11.539 0 0056.524.99h-1.232a5.1 5.1 0 00-3.617 1.518 5.21 5.21 0 00-1.502 3.656V124.33a5.212 5.212 0 001.502 3.656c.96.97 2.26 1.515 3.617 1.518h.796a11.995 11.995 0 008.49-3.575 12.253 12.253 0 003.525-8.586zm2.677-62.612v21.886c.879.041 1.757.075 2.628.095 4.154.112 8.062-.087 10.204-3.634 1.573-2.597 1.725-6.223 1.733-7.256v-.133c0-1.245-.148-4.813-1.733-7.435-2.142-3.552-6.05-3.734-10.204-3.639-.875.042-1.75.075-2.628.116zm-23.307 2.025L.845 64.253c-.236.038-.45.16-.605.343a1.02 1.02 0 000 1.315 1 1 0 00.605.342l46.628 7.493v-16.99zM14.025 82.513V70.705L2.478 68.85v17.11c0 1.09.429 2.137 1.192 2.908a4.046 4.046 0 002.876 1.204c.982 0 1.955-.196 2.862-.575a7.472 7.472 0 002.427-1.639 7.571 7.571 0 001.621-2.453c.376-.916.57-1.9.57-2.892zm0-34.573a7.6 7.6 0 00-2.19-5.346 7.438 7.438 0 00-5.289-2.214 4.031 4.031 0 00-2.877 1.204 4.122 4.122 0 00-1.191 2.908v17.11l11.547-1.855V47.94z" fill="#1FE5B4"/></svg>