<svg width="160" height="104" fill="none" xmlns="http://www.w3.org/2000/svg"><path d="M115.122 46.489l-30.83-13.464a250.465 250.465 0 01-6.664 7.572l22.827 9.886c.834.506 1.73.892 2.661 1.148 1.22.344 2.479.517 3.742.513 4.883 0 8.814-2.398 8.984-5.399-.238-.076-.488-.153-.72-.256z" fill="#1FE5B4"/><path d="M67.777 25.818C53 47.008 44.23 60.472 42.752 64.345a7.925 7.925 0 00-.738 2.75c.348-.038 1.22-.282 3.192-1.474a83.776 83.776 0 005.084-3.386l.574-.41 12.055 5.213.262.115c.317.128.61.256.977.372 4.333 1.442 8.007.314 8.581-1.603.574-1.917-1.532-4.488-4.773-5.963l-.134-.057a8.098 8.098 0 00-.537-.231l-8.905-3.796 1.623-1.436a231.39 231.39 0 0013.19-12.88 234.625 234.625 0 008.618-9.618l-14.044-6.123zm48.313 18.183c1.462.594 3.017.89 4.584.872 4.547 0 7.721-2.237 7.721-4.25 0-1.34-1.318-2.68-3.442-3.501h-.055L44.043 1.833a9.448 9.448 0 00-1.22-.532A12.193 12.193 0 0038.72.615C34.168.615 31 2.852 31 4.865c0 1.36 1.404 2.751 3.583 3.553l32.312 14.105 2.442 1.058 14.252 6.225 2.496 1.09 30.005 13.105zM35.813 22.497c.623.35 1.277.633 1.953.846L59.33 32.68c2.21-3.027 4.273-5.77 5.914-7.963L38.712 13.13c-3.418.795-5.847 2.834-5.847 5.232 0 1.622 1.117 3.077 2.893 4.103l.055.032zm57.1-2.257c.31-.41.488-.64.488-.64.995-1.354 3.1-4.303 2.698-7.842-.556-4.937-5.952-10.483-11.152-9.303-3.1.699-4.882 3.513-5.45 4.488a2101.33 2101.33 0 00-4.035 5.7l17.45 7.598zM46.806 50.938l-4.156-1.776a12.948 12.948 0 00-2.674-1.237 10.85 10.85 0 00-5.865-.43c-1.447.353-2.441 1.09-2.722 2.033-.55 1.834 1.422 4.36 4.59 5.873.274.134.561.256.854.372l5.738 2.481c1.147-2.212 2.6-4.7 4.235-7.316zM16.399 93.953V97H1.955v-2.607l6.93-7.486c.722-.82 1.293-1.533 1.713-2.138.42-.606.718-1.153.894-1.641.185-.498.278-.972.278-1.421 0-.654-.117-1.226-.352-1.714a2.63 2.63 0 00-1.025-1.157c-.44-.273-.981-.41-1.626-.41-.713 0-1.323.166-1.831.498a3.097 3.097 0 00-1.143 1.347c-.254.577-.38 1.236-.38 1.978H1.53c0-1.26.293-2.407.879-3.442.586-1.045 1.425-1.88 2.52-2.505 1.093-.625 2.392-.938 3.896-.938 1.464 0 2.705.244 3.72.733 1.016.478 1.787 1.162 2.315 2.05.527.89.79 1.949.79 3.18 0 .683-.111 1.357-.336 2.02a9.393 9.393 0 01-.952 1.978c-.4.645-.88 1.299-1.436 1.963a34.25 34.25 0 01-1.86 2.036l-4.16 4.63h9.492zM28.674 78.91L22.594 97h-4.262L26.3 75.672h2.724l-.351 3.237zM33.757 97l-6.109-18.09-.366-3.238h2.74L38.033 97h-4.277zm-.279-7.925v3.179h-11.44v-3.179h11.44zm10.473-4.54V97h-3.867V81.15h3.633l.234 3.384zm-.615 3.969h-1.142c.01-1.152.166-2.197.468-3.135.303-.937.728-1.743 1.275-2.417a5.727 5.727 0 011.977-1.553c.762-.36 1.612-.542 2.55-.542.76 0 1.45.108 2.065.323a3.895 3.895 0 011.581 1.025c.45.469.792 1.084 1.026 1.846.244.752.366 1.68.366 2.783V97h-3.896V86.805c0-.723-.108-1.294-.323-1.714a1.797 1.797 0 00-.908-.894c-.39-.175-.874-.263-1.45-.263-.596 0-1.118.122-1.567.366-.44.234-.81.561-1.114.981-.293.42-.517.904-.673 1.45a6.43 6.43 0 00-.235 1.773zm18.823 6.738l4.248-14.092h4.145l-6.357 18.252a12.58 12.58 0 01-.571 1.275 5.408 5.408 0 01-.909 1.303c-.38.42-.859.762-1.435 1.026-.566.264-1.255.395-2.066.395-.351 0-.664-.024-.937-.073a11.83 11.83 0 01-.864-.19v-2.901c.097.01.21.015.337.015.136.01.254.015.351.015.567 0 1.035-.069 1.406-.205.372-.127.67-.337.894-.63.234-.284.43-.655.586-1.114l1.172-3.076zM60.064 81.15l3.589 11.675.63 4.087-2.666.483-5.728-16.245h4.175zm18.5 11.763l4.249-17.241h2.3l.146 3.633L80.718 97h-2.432l.278-4.087zm-2.68-17.241l3.486 17.183V97h-2.65l-4.834-21.328h3.999zm13.784 17.11l3.428-17.11h4.013L92.275 97h-2.651l.044-4.219zm-3.457-17.11l4.248 17.3.249 4.028h-2.432L83.75 79.29l.176-3.618h2.285zm17.548-1.172V97h-3.882V74.5h3.882zm-.615 14.004h-1.143c0-1.104.147-2.12.44-3.047.293-.928.708-1.733 1.245-2.417a5.709 5.709 0 011.919-1.611c.752-.381 1.582-.572 2.49-.572.781 0 1.489.113 2.124.337a4.014 4.014 0 011.655 1.04c.459.479.811 1.104 1.055 1.875.254.762.381 1.69.381 2.784V97h-3.897V86.863c0-.732-.107-1.308-.322-1.728-.215-.43-.522-.738-.923-.923-.39-.186-.874-.278-1.45-.278-.625 0-1.162.122-1.611.366-.449.234-.82.561-1.113.981-.284.42-.498.904-.645 1.45a7.28 7.28 0 00-.205 1.773zm21.298 8.789c-1.201 0-2.28-.195-3.237-.586a7.1 7.1 0 01-2.446-1.626 7.472 7.472 0 01-1.538-2.446 8.515 8.515 0 01-.528-3.018v-.586c0-1.22.176-2.329.528-3.325.351-1.006.849-1.87 1.494-2.593a6.573 6.573 0 012.314-1.67c.899-.39 1.89-.586 2.974-.586 1.123 0 2.114.19 2.973.572a5.73 5.73 0 012.154 1.582c.576.683 1.01 1.504 1.303 2.46.293.948.44 1.998.44 3.15v1.626h-12.422v-2.666h8.613v-.293a4.653 4.653 0 00-.351-1.684 2.694 2.694 0 00-.996-1.231c-.45-.313-1.031-.469-1.744-.469-.576 0-1.079.127-1.508.381-.42.244-.772.596-1.055 1.055-.273.45-.479.986-.615 1.611a9.733 9.733 0 00-.205 2.08v.586c0 .664.088 1.28.263 1.846a4.43 4.43 0 00.806 1.48c.361.41.791.732 1.289.966.508.225 1.084.337 1.729.337.81 0 1.543-.156 2.197-.469a4.89 4.89 0 001.728-1.42l1.949 2.02c-.332.49-.782.958-1.348 1.407-.557.45-1.231.816-2.022 1.099-.791.273-1.704.41-2.739.41zm13.491-12.905V97h-3.867V81.15h3.662l.205 3.238zm4.819-3.34l-.058 3.603a6.842 6.842 0 00-.733-.087 9.914 9.914 0 00-.747-.03c-.596 0-1.118.083-1.567.25-.45.155-.826.385-1.128.688a3.036 3.036 0 00-.674 1.113c-.156.43-.244.918-.264 1.465l-.835-.103c0-1.006.103-1.938.308-2.798.205-.859.503-1.61.893-2.255.391-.645.879-1.143 1.465-1.495.596-.36 1.28-.542 2.051-.542.215 0 .444.02.689.059.253.03.454.073.6.132zm9.55 16.245c-1.201 0-2.28-.195-3.237-.586a7.11 7.11 0 01-2.446-1.626 7.472 7.472 0 01-1.538-2.446 8.515 8.515 0 01-.528-3.018v-.586c0-1.22.176-2.329.528-3.325.351-1.006.849-1.87 1.494-2.593a6.573 6.573 0 012.314-1.67c.899-.39 1.89-.586 2.974-.586 1.123 0 2.114.19 2.974.572a5.751 5.751 0 012.153 1.582c.576.683 1.011 1.504 1.304 2.46.293.948.439 1.998.439 3.15v1.626h-12.422v-2.666h8.613v-.293a4.653 4.653 0 00-.351-1.684 2.694 2.694 0 00-.996-1.231c-.449-.313-1.031-.469-1.743-.469-.577 0-1.08.127-1.509.381-.42.244-.772.596-1.055 1.055-.273.45-.478.986-.615 1.611a9.733 9.733 0 00-.205 2.08v.586c0 .664.088 1.28.263 1.846a4.44 4.44 0 00.806 1.48c.361.41.791.732 1.289.966.508.225 1.084.337 1.729.337.81 0 1.543-.156 2.197-.469a4.89 4.89 0 001.728-1.42l1.949 2.02c-.332.49-.782.958-1.348 1.407-.557.45-1.23.816-2.021 1.099-.791.273-1.705.41-2.74.41z" fill="#1FE5B4"/></svg>