<svg width="215" height="75" fill="none" xmlns="http://www.w3.org/2000/svg"><g clip-path="url(#clip0_17_392)"><path d="M202.1.328H15.766C7.85.328 1.433 6.678 1.433 14.51v45.382c0 7.833 6.417 14.182 14.333 14.182H202.1c7.916 0 14.333-6.35 14.333-14.182V14.51c0-7.832-6.417-14.182-14.333-14.182z" fill="#fff"/><path d="M60.2 4.583h-43c-6.333 0-11.467 5.08-11.467 11.345v42.546c0 6.266 5.134 11.346 11.467 11.346h43c6.333 0 11.467-5.08 11.467-11.346V15.928c0-6.266-5.134-11.345-11.467-11.345z" fill="#1FE5B4"/><path d="M50.167 4.583H18.633c-7.124 0-12.9 5.714-12.9 12.764v31.2c0 7.049 5.776 12.764 12.9 12.764h31.534c7.124 0 12.9-5.715 12.9-12.764v-31.2c0-7.05-5.776-12.764-12.9-12.764z" fill="#1FE5B4"/><path d="M59.47 45.029l-16.114-6.552a125.162 125.162 0 01-3.484 3.685l11.931 4.81c.436.247.904.435 1.391.56a7.613 7.613 0 001.956.249c2.552 0 4.607-1.167 4.696-2.627-.125-.038-.255-.075-.377-.125z" fill="#fff"/><path d="M34.723 34.97c-7.724 10.312-12.308 16.864-13.08 18.749a3.652 3.652 0 00-.386 1.338c.182-.018.638-.137 1.668-.717a44.246 44.246 0 002.658-1.648l.3-.2 6.3 2.537.138.056c.165.063.319.125.51.181 2.265.702 4.185.153 4.485-.78.3-.933-.8-2.184-2.495-2.901l-.07-.029a4.356 4.356 0 00-.28-.112l-4.655-1.847.849-.699a117.5 117.5 0 006.894-6.268 117.348 117.348 0 004.504-4.68l-7.34-2.98zm25.253 8.849a6.577 6.577 0 002.395.424c2.377 0 4.036-1.09 4.036-2.069 0-.652-.689-1.304-1.8-1.703h-.028L22.32 23.297a5.26 5.26 0 00-.638-.259 6.801 6.801 0 00-2.144-.334c-2.38 0-4.036 1.09-4.036 2.069 0 .662.734 1.338 1.873 1.729l16.889 6.864 1.276.515 7.449 3.03 1.305.53 15.683 6.377zm-41.96-10.466c.326.17.668.308 1.021.412l11.271 4.543c1.155-1.473 2.233-2.808 3.091-3.875l-13.867-5.638c-1.787.387-3.057 1.379-3.057 2.546 0 .79.584 1.497 1.512 1.997l.03.015zm29.844-1.098l.255-.312c.52-.658 1.62-2.094 1.41-3.816-.29-2.402-3.11-5.101-5.828-4.527-1.62.34-2.552 1.71-2.849 2.184-.619.811-1.334 1.75-2.109 2.774l9.121 3.697zM23.762 47.194l-2.173-.864a7.01 7.01 0 00-1.397-.602 6.069 6.069 0 00-3.066-.209c-.756.172-1.276.53-1.423.989-.287.892.744 2.122 2.4 2.858.143.066.293.125.446.181l2.999 1.208a51.463 51.463 0 012.214-3.56z" fill="#fff"/><path d="M86.54 18.011v12.1h-1.024V18.89h-6.929v11.22h-1.033v-12.1h8.986zm3.914 4.836v10.72h-1.008V21.119h.94l.068 1.728zm6.316 2.684v.175a6.82 6.82 0 01-.236 1.845 4.55 4.55 0 01-.68 1.454 3.022 3.022 0 01-1.083.939c-.431.222-.921.332-1.47.332a3.97 3.97 0 01-1.453-.249 3.197 3.197 0 01-1.1-.706 3.73 3.73 0 01-.73-1.08 5.427 5.427 0 01-.379-1.363v-2.302a6.102 6.102 0 01.412-1.48c.19-.442.434-.825.73-1.146a3.093 3.093 0 011.075-.74 3.7 3.7 0 011.42-.257c.554 0 1.047.108 1.478.324.437.21.803.518 1.1.922.302.4.53.881.68 1.446.157.56.236 1.188.236 1.887zm-1.008.175v-.174c0-.527-.056-1.014-.168-1.463a3.539 3.539 0 00-.496-1.172 2.328 2.328 0 00-.84-.79c-.335-.188-.736-.282-1.2-.282-.482 0-.894.08-1.235.241a2.437 2.437 0 00-.84.624c-.224.254-.4.534-.529.839a4.89 4.89 0 00-.286.897v2.651c.107.421.278.812.513 1.172.235.354.548.64.94.856.398.21.882.315 1.453.315.46 0 .857-.094 1.193-.282a2.35 2.35 0 00.831-.79c.224-.337.39-.73.496-1.18.112-.448.168-.936.168-1.462zm4.3 2.792l4.913-7.379h1.008v8.991h-1.008v-7.379l-4.913 7.38h-.991v-8.992h.991v7.379zm11.968.922c.425 0 .823-.077 1.192-.232a2.29 2.29 0 00.924-.706c.246-.316.386-.701.42-1.156h.957a2.782 2.782 0 01-.529 1.53 3.316 3.316 0 01-1.26 1.046 3.857 3.857 0 01-1.704.374c-.633 0-1.193-.113-1.68-.34a3.377 3.377 0 01-1.21-.948 4.36 4.36 0 01-.739-1.429 6.223 6.223 0 01-.243-1.77v-.349c0-.632.081-1.219.243-1.762a4.25 4.25 0 01.739-1.429c.325-.41.728-.728 1.21-.955.481-.228 1.039-.341 1.671-.341.65 0 1.232.13 1.747.39a3.1 3.1 0 011.243 1.106c.314.476.484 1.041.512 1.695h-.957c-.028-.482-.157-.898-.386-1.247a2.305 2.305 0 00-.908-.806 2.748 2.748 0 00-1.251-.282c-.515 0-.954.1-1.318.299a2.434 2.434 0 00-.891.806 3.635 3.635 0 00-.495 1.163 5.7 5.7 0 00-.16 1.363v.349c0 .482.051.942.151 1.38.107.432.272.817.496 1.154.23.338.526.607.89.807.37.193.815.29 1.336.29zm4.963-3.664v-.274c0-.654.095-1.258.286-1.812a4.26 4.26 0 01.814-1.438 3.723 3.723 0 011.285-.938 3.966 3.966 0 011.663-.341 3.98 3.98 0 011.671.34c.499.222.927.535 1.285.94.359.404.633.883.823 1.437.191.554.286 1.158.286 1.812v.274a5.52 5.52 0 01-.286 1.811 4.19 4.19 0 01-.823 1.43c-.352.404-.778.72-1.276.947a4.047 4.047 0 01-1.663.332 4.06 4.06 0 01-1.671-.332 3.794 3.794 0 01-1.285-.947 4.19 4.19 0 01-.823-1.43 5.524 5.524 0 01-.286-1.811zm.999-.274v.274c0 .493.068.96.202 1.404.134.438.33.828.588 1.172.258.338.577.604.957.798.381.193.821.29 1.319.29.493 0 .927-.097 1.302-.29.38-.194.7-.46.957-.798.258-.344.451-.734.58-1.172.134-.443.201-.911.201-1.404v-.274c0-.488-.067-.95-.201-1.388a3.566 3.566 0 00-.588-1.172 2.82 2.82 0 00-.958-.814c-.38-.2-.817-.3-1.31-.3-.493 0-.929.1-1.31.3-.375.2-.694.47-.958.814a3.79 3.79 0 00-.587 1.172c-.129.438-.194.9-.194 1.388zm12.707 4.794a4.073 4.073 0 01-1.637-.324 3.92 3.92 0 01-1.294-.914 4.21 4.21 0 01-.848-1.396 5.201 5.201 0 01-.294-1.778v-.358c0-.692.104-1.318.311-1.878a4.357 4.357 0 01.856-1.437 3.8 3.8 0 011.243-.914 3.502 3.502 0 011.478-.324c.577 0 1.09.102 1.537.307.448.2.823.485 1.126.856.308.366.54.8.697 1.305.157.498.235 1.05.235 1.653v.607h-6.878v-.848h5.879v-.116a3.63 3.63 0 00-.311-1.412 2.552 2.552 0 00-.857-1.08c-.38-.278-.856-.416-1.428-.416-.425 0-.817.088-1.175.266a2.672 2.672 0 00-.916.764 3.669 3.669 0 00-.588 1.172 5.217 5.217 0 00-.201 1.495v.358c0 .498.073.964.218 1.396.151.426.364.803.638 1.13a3 3 0 00.991.764c.381.183.801.275 1.26.275.538 0 1.014-.097 1.428-.291.414-.2.787-.513 1.117-.94l.63.483a3.802 3.802 0 01-.739.798 3.347 3.347 0 01-1.05.581c-.409.144-.885.216-1.428.216zm7.005-9.157h.999l-.151 3.24c-.039.865-.137 1.616-.294 2.253a7.599 7.599 0 01-.563 1.62 5.31 5.31 0 01-.739 1.122 5.356 5.356 0 01-.806.756h-.546l.017-.848.252-.008c.162-.194.33-.413.504-.656.179-.25.35-.554.512-.914a6.96 6.96 0 00.42-1.347c.117-.537.196-1.196.235-1.977l.16-3.24zm.327 0h5.031v8.991h-1v-8.06h-4.031v-.93zm-2.813 8.135h8.793v3.499h-1.008V30.11h-6.828v2.643h-.957v-3.499zm11.79-.756l4.914-7.379h1.008v8.991h-1.008v-7.379l-4.914 7.38h-.99v-8.992h.99v7.379zm14.815-3.357v.848h-5.39v-.848h5.39zm-5.131-4.022v8.991h-.999v-8.99h.999zm5.904 0v8.991h-1.008v-8.99h1.008zm3.762 7.379l4.914-7.379h1.008v8.991h-1.008v-7.379l-4.914 7.38h-.99v-8.992h.99v7.379zm11.825-7.379v8.991h-.999v-8.99h.999zm3.31 0v.848h-7.499v-.848h7.499zm2.411 3.257h2.964c.717 0 1.322.125 1.815.374.491.244.864.582 1.116 1.014.258.432.387.92.387 1.463 0 .41-.073.792-.219 1.146a2.462 2.462 0 01-.638.914 2.91 2.91 0 01-1.042.607c-.408.144-.881.216-1.419.216h-3.603v-8.99h1v8.134h2.603c.555 0 1.002-.094 1.344-.282.342-.194.588-.444.739-.748.157-.305.235-.629.235-.972 0-.338-.078-.66-.235-.964a1.748 1.748 0 00-.739-.756c-.342-.2-.789-.3-1.344-.3h-2.964v-.856zm11.808 5.044c.425 0 .822-.077 1.192-.232a2.29 2.29 0 00.925-.706c.245-.316.385-.701.418-1.156h.958a2.782 2.782 0 01-.529 1.53 3.3 3.3 0 01-1.26 1.046 3.854 3.854 0 01-1.704.374c-.632 0-1.193-.113-1.68-.34a3.377 3.377 0 01-1.21-.948 4.357 4.357 0 01-.738-1.429 6.152 6.152 0 01-.244-1.77v-.349c0-.632.08-1.219.244-1.762a4.249 4.249 0 01.738-1.429c.325-.41.728-.728 1.21-.955.481-.228 1.039-.341 1.671-.341.649 0 1.231.13 1.747.39a3.1 3.1 0 011.243 1.106c.314.476.484 1.041.512 1.695h-.958c-.027-.482-.156-.898-.385-1.247a2.305 2.305 0 00-.908-.806 2.748 2.748 0 00-1.251-.282c-.515 0-.955.1-1.319.299a2.43 2.43 0 00-.89.806 3.704 3.704 0 00-.496 1.163 5.701 5.701 0 00-.159 1.363v.349c0 .482.05.942.152 1.38.106.432.271.817.495 1.154.229.338.526.607.89.807.37.193.815.29 1.336.29zm7.499-3.431h1.109l-2.52 4.121h-1.107l2.518-4.121zm1.068-4.87h3.569v8.991h-1.001v-8.143h-2.568c-.533 0-.966.088-1.303.266-.33.171-.574.398-.73.68a1.883 1.883 0 00-.228.907c0 .304.068.595.202.872.141.277.356.504.647.682.291.171.669.257 1.134.257h3.207v.856h-3.207c-.476 0-.899-.066-1.269-.2a2.741 2.741 0 01-.94-.556 2.508 2.508 0 01-.579-.856 2.937 2.937 0 01-.194-1.072c0-.388.071-.742.211-1.064.145-.326.355-.612.629-.855.28-.244.622-.433 1.025-.566a4.5 4.5 0 011.395-.199zM81.89 50.15h-3.085l-.018-1.7h2.548c.34 0 .615-.034.828-.1.212-.072.367-.177.464-.315a.874.874 0 00.154-.522.97.97 0 00-.1-.46.765.765 0 00-.282-.323 1.299 1.299 0 00-.482-.18 3.079 3.079 0 00-.664-.063h-1.474v7.732h-2.62v-9.74h4.094c.643 0 1.219.057 1.728.171.51.108.944.273 1.302.495.364.222.64.504.827.846.195.337.291.736.291 1.198 0 .3-.07.582-.209.846a2.052 2.052 0 01-.6.702 3.4 3.4 0 01-.992.504 5.396 5.396 0 01-1.346.234l-.364.675zm0 4.07h-3.73l.9-2.008h2.83c.321 0 .585-.039.791-.117a.898.898 0 00.455-.342.99.99 0 00.155-.558c0-.21-.046-.393-.137-.55a.873.873 0 00-.445-.36c-.2-.09-.474-.134-.82-.134h-2.447l.018-1.702h2.785l.636.684c.692.042 1.262.171 1.71.387.45.216.78.492.993.828.218.33.327.694.327 1.09 0 .462-.088.867-.264 1.215-.176.348-.437.64-.782.873-.34.228-.758.402-1.256.522a7.745 7.745 0 01-1.72.171zm16.895-9.741v2.035h-4.767v-2.035h4.767zm-4.012 0v9.74h-2.62v-9.74h2.62zm5.923 0v9.74h-2.63v-9.74h2.63zm4.64 1.873v11.612h-2.62V44.48h2.429l.191 1.873zm6.232 2.89v.188c0 .709-.085 1.366-.255 1.972a4.889 4.889 0 01-.727 1.584 3.452 3.452 0 01-1.201 1.044c-.473.246-1.019.37-1.638.37-.6 0-1.122-.12-1.565-.36a3.241 3.241 0 01-1.119-1.009 5.818 5.818 0 01-.719-1.521 11.897 11.897 0 01-.418-1.855v-.495a12.17 12.17 0 01.418-1.944 5.591 5.591 0 01.719-1.54 3.238 3.238 0 011.11-1.017c.443-.24.961-.36 1.556-.36.625 0 1.173.117 1.647.351.479.234.879.57 1.201 1.008.327.438.573.96.736 1.567.17.606.255 1.278.255 2.016zm-2.629.188v-.189c0-.414-.037-.795-.109-1.143a2.942 2.942 0 00-.328-.927 1.583 1.583 0 00-.582-.612c-.237-.15-.525-.225-.865-.225-.357 0-.664.057-.918.17a1.532 1.532 0 00-.61.496 2.28 2.28 0 00-.355.774c-.079.3-.127.64-.145 1.017v1.252a4 4 0 00.254 1.197c.14.348.355.624.646.828.292.204.674.306 1.147.306.345 0 .637-.075.873-.225.237-.156.428-.37.573-.64a2.89 2.89 0 00.319-.935c.066-.355.1-.736.1-1.144zm6.869 1.17l3.303-6.121h2.62v9.74h-2.62v-6.13l-3.303 6.13h-2.62v-9.74h2.62V50.6zm14.567-6.121v2.035h-4.841v-2.035h4.841zm1.919 0v9.74h-2.62v-9.74h2.62zm-7.415 0h2.575l-.264 4.915c-.036.703-.112 1.32-.227 1.855-.116.534-.27.99-.464 1.368a3.06 3.06 0 01-.683.927 2.42 2.42 0 01-.919.513 3.828 3.828 0 01-1.146.162h-.801l-.027-2.043.337-.036c.194-.018.364-.072.509-.162.152-.096.279-.231.382-.405.11-.18.2-.405.273-.675.073-.276.131-.6.173-.973.049-.372.082-.8.1-1.287l.182-4.159zm9.026 4.97v-.19c0-.714.103-1.371.309-1.971a4.534 4.534 0 01.901-1.576 4.032 4.032 0 011.455-1.035c.577-.252 1.238-.378 1.984-.378s1.41.126 1.992.378a4.01 4.01 0 011.465 1.035c.401.444.704.97.91 1.576.206.6.309 1.257.309 1.971v.19a6.09 6.09 0 01-.309 1.97 4.568 4.568 0 01-.91 1.576 4.02 4.02 0 01-1.455 1.035c-.577.246-1.238.37-1.984.37s-1.41-.123-1.992-.37a4.113 4.113 0 01-1.465-1.035 4.645 4.645 0 01-.901-1.575 6.09 6.09 0 01-.309-1.972zm2.62-.19v.19c0 .407.036.788.109 1.143.073.354.188.666.346.936.164.264.376.47.637.62.261.15.579.226.955.226.364 0 .676-.075.937-.225.261-.15.47-.357.628-.621.158-.27.273-.582.346-.936.079-.355.118-.736.118-1.144v-.189c0-.396-.039-.768-.118-1.116a2.927 2.927 0 00-.355-.936 1.755 1.755 0 00-.628-.648c-.261-.156-.576-.234-.946-.234s-.686.078-.946.233a1.852 1.852 0 00-.628.649c-.158.27-.273.582-.346.936-.073.348-.109.72-.109 1.116zm11.591 1.288l-4.094-6.068h3.249l2.092 3.673h1.884l-.32 2.395h-2.811zm1.283-.442l-2.247 4.114h-3.157l3.266-5.365 2.138 1.251zm3.549-5.626v9.74h-2.621v-9.74h2.621zm6.331 0l-4.093 6.068h-2.811l-.32-2.395h1.884l2.084-3.673h3.256zm-3.137 9.74l-2.248-4.114 2.22-1.25 3.248 5.364h-3.22zm8.842.18c-.764 0-1.449-.12-2.056-.36a4.515 4.515 0 01-1.546-1.017 4.518 4.518 0 01-.965-1.503 5.003 5.003 0 01-.337-1.837v-.36c0-.738.106-1.413.319-2.025a4.75 4.75 0 01.91-1.594c.4-.45.886-.795 1.456-1.035.569-.246 1.213-.369 1.928-.369.698 0 1.317.114 1.856.342.54.228.992.552 1.356.972.37.42.649.925.837 1.513.188.582.282 1.23.282 1.944v1.08H161.2v-1.728h5.249v-.198c0-.36-.066-.681-.2-.963a1.533 1.533 0 00-.581-.684c-.261-.168-.595-.252-1.002-.252-.346 0-.643.075-.892.225-.248.15-.451.36-.609.63a3.4 3.4 0 00-.346.954c-.073.36-.108.756-.108 1.188v.36c0 .39.054.75.163 1.08.115.33.275.616.482.856.212.24.467.426.764.558.303.132.646.198 1.029.198.473 0 .913-.09 1.318-.27a2.855 2.855 0 001.065-.837l1.273 1.368a3.8 3.8 0 01-.846.846c-.351.27-.776.492-1.274.666-.497.169-1.063.253-1.701.253zm12.273-5.986v2.017h-5.003v-2.017h5.003zm-4.129-3.934v9.74h-2.622v-9.74h2.622zm5.904 0v9.74h-2.629v-9.74h2.629zm4.65 6.121l3.302-6.121h2.62v9.74h-2.62v-6.13l-3.302 6.13h-2.62v-9.74h2.62V50.6zm10.553 0l3.303-6.121h2.621v9.74h-2.621v-6.13l-3.303 6.13h-2.62v-9.74h2.62V50.6z" fill="#000"/></g><defs><clipPath id="clip0_17_392"><path fill="#fff" d="M0 0h215v75H0z"/></clipPath></defs></svg>