<svg width="77" height="76" fill="none" xmlns="http://www.w3.org/2000/svg"><g clip-path="url(#clip0_3_34)"><path d="M59 0H17.2C7.756 0 .1 7.656.1 17.1v41.8C.1 68.344 7.756 76 17.2 76H59c9.444 0 17.1-7.656 17.1-17.1V17.1C76.1 7.656 68.444 0 59 0z" fill="#FF7C33"/><path d="M62.04 47.12l-18.573-7.634a145.097 145.097 0 01-4.016 4.293l13.753 5.605a6.517 6.517 0 001.603.65 8.681 8.681 0 002.255.291c2.941 0 5.31-1.359 5.412-3.06-.143-.044-.294-.087-.433-.146z" fill="#fff"/><path d="M33.515 35.4c-8.903 12.014-14.187 19.647-15.077 21.843a4.283 4.283 0 00-.445 1.56c.21-.023.736-.16 1.923-.837a50.843 50.843 0 003.064-1.92l.345-.232 7.263 2.955.158.066c.191.073.368.145.588.21 2.611.819 4.825.179 5.17-.908.346-1.087-.922-2.544-2.875-3.38l-.081-.033a4.924 4.924 0 00-.324-.131L27.86 52.44l.978-.814a135.92 135.92 0 007.947-7.303 136.21 136.21 0 005.192-5.453l-8.461-3.47zm29.108 10.31c.88.336 1.818.504 2.762.493 2.74 0 4.651-1.268 4.651-2.41 0-.76-.794-1.519-2.073-1.984h-.033L19.217 21.802a5.866 5.866 0 00-.736-.302 7.764 7.764 0 00-2.47-.389c-2.744 0-4.653 1.269-4.653 2.41 0 .77.846 1.56 2.159 2.014l19.467 7.997 1.471.6 8.587 3.53 1.504.617 18.077 7.43zM14.258 33.517c.375.198.769.36 1.176.48l12.992 5.293c1.331-1.716 2.574-3.272 3.563-4.515l-15.985-6.568c-2.059.45-3.523 1.606-3.523 2.966 0 .92.673 1.744 1.744 2.326l.033.018zm34.4-1.279l.294-.364c.6-.767 1.868-2.439 1.625-4.445-.334-2.8-3.585-5.943-6.718-5.275-1.868.397-2.942 1.992-3.284 2.545-.713.945-1.537 2.04-2.43 3.231l10.513 4.308zM20.881 49.642l-2.504-1.007a8.054 8.054 0 00-1.61-.701 6.928 6.928 0 00-3.535-.244c-.871.2-1.47.618-1.64 1.152-.33 1.04.857 2.472 2.766 3.33.165.077.338.145.514.21l3.457 1.408c.691-1.254 1.566-2.665 2.552-4.148z" fill="#fff"/></g><defs><clipPath id="clip0_3_34"><path fill="#fff" transform="translate(.1)" d="M0 0h76v76H0z"/></clipPath></defs></svg>