<svg width="265" height="29" fill="none" xmlns="http://www.w3.org/2000/svg"><path d="M38.867 19.631L24.623 13.87a110.239 110.239 0 01-3.08 3.24l10.547 4.23c.385.217.8.383 1.23.492a6.766 6.766 0 001.728.22c2.256 0 4.073-1.027 4.151-2.31-.11-.034-.225-.067-.332-.11z" fill="#FF7C33"/><path d="M16.993 10.785c-6.827 9.068-10.88 14.83-11.562 16.487a3.198 3.198 0 00-.341 1.178c.16-.017.564-.121 1.475-.631.741-.42 1.508-.892 2.349-1.45l.265-.175 5.57 2.23.12.05c.148.055.283.11.452.16 2.002.617 3.7.134 3.965-.686.265-.821-.708-1.921-2.205-2.552l-.062-.025a3.849 3.849 0 00-.248-.099l-4.115-1.624.75-.614A103.653 103.653 0 0019.5 17.52a103.44 103.44 0 003.982-4.115l-6.489-2.62zm22.322 7.782c.675.254 1.394.38 2.118.373 2.1 0 3.567-.958 3.567-1.82 0-.573-.61-1.146-1.59-1.497h-.026L6.027.52a4.554 4.554 0 00-.565-.227A6.041 6.041 0 003.567 0C1.464 0 0 .958 0 1.82c0 .58.649 1.176 1.655 1.52l14.93 6.035 1.128.453 6.585 2.664 1.153.467 13.864 5.608zM2.224 9.364c.287.15.59.271.902.362l9.963 3.995c1.021-1.295 1.974-2.469 2.733-3.407L3.563 5.356C1.983 5.696.861 6.569.861 7.595c0 .694.517 1.317 1.337 1.756l.026.013zm26.384-.965l.225-.275c.46-.579 1.433-1.84 1.247-3.355-.257-2.113-2.75-4.486-5.153-3.981-1.432.299-2.256 1.503-2.518 1.92a898.85 898.85 0 00-1.864 2.44l8.063 3.25zM7.303 21.535l-1.92-.76a6.212 6.212 0 00-1.235-.53 5.393 5.393 0 00-2.71-.183c-.669.151-1.128.466-1.258.87-.254.785.657 1.866 2.12 2.513.128.058.26.11.396.16l2.65 1.061a45.437 45.437 0 011.957-3.13zm86.564-1.904L79.622 13.87a110.239 110.239 0 01-3.079 3.24l10.547 4.23c.385.217.8.383 1.23.492a6.766 6.766 0 001.728.22c2.257 0 4.073-1.027 4.151-2.31-.11-.034-.225-.067-.332-.11z" fill="#FF7C33"/><path d="M71.993 10.785c-6.827 9.068-10.88 14.83-11.562 16.487a3.196 3.196 0 00-.341 1.178c.16-.017.564-.121 1.475-.631.741-.42 1.509-.892 2.349-1.45l.265-.175 5.57 2.23.12.05c.147.055.283.11.452.16 2.002.617 3.7.134 3.965-.686.265-.821-.708-1.921-2.205-2.552l-.062-.025a3.849 3.849 0 00-.248-.099l-4.115-1.624.75-.614A103.653 103.653 0 0074.5 17.52a103.44 103.44 0 003.982-4.115l-6.489-2.62zm22.322 7.782c.675.254 1.394.38 2.118.373 2.1 0 3.567-.958 3.567-1.82 0-.573-.61-1.146-1.59-1.497h-.026L61.027.52a4.558 4.558 0 00-.565-.227A6.042 6.042 0 0058.567 0C56.464 0 55 .958 55 1.82c0 .58.649 1.176 1.655 1.52l14.93 6.035 1.128.453 6.585 2.664 1.153.467 13.864 5.608zM57.224 9.364c.287.15.59.271.902.362l9.963 3.995c1.021-1.295 1.974-2.469 2.733-3.407L58.563 5.356c-1.58.34-2.702 1.213-2.702 2.239 0 .694.517 1.317 1.337 1.756l.026.013zm26.384-.965l.225-.275c.46-.579 1.433-1.84 1.247-3.355-.257-2.113-2.75-4.486-5.153-3.981-1.432.299-2.256 1.503-2.518 1.92a898.85 898.85 0 00-1.864 2.44l8.063 3.25zM62.303 21.535l-1.92-.76a6.213 6.213 0 00-1.235-.53 5.393 5.393 0 00-2.71-.183c-.669.151-1.128.466-1.258.87-.254.785.657 1.866 2.12 2.513.128.058.26.11.396.16l2.65 1.061a45.422 45.422 0 011.958-3.13zm86.564-1.904l-14.244-5.761a111.474 111.474 0 01-3.08 3.24l10.547 4.23c.386.217.799.383 1.23.492a6.76 6.76 0 001.728.22c2.257 0 4.073-1.027 4.152-2.31-.11-.034-.226-.067-.333-.11z" fill="#FF7C33"/><path d="M126.993 10.785c-6.827 9.068-10.879 14.83-11.562 16.487a3.186 3.186 0 00-.341 1.178c.161-.017.564-.121 1.475-.631.741-.42 1.508-.892 2.349-1.45l.265-.175 5.57 2.23.121.05c.147.055.282.11.451.16 2.002.617 3.7.134 3.965-.686.265-.821-.708-1.921-2.205-2.552l-.062-.025a4.062 4.062 0 00-.248-.099l-4.115-1.624.75-.614a103.587 103.587 0 006.094-5.513 103.163 103.163 0 003.982-4.115l-6.489-2.62zm22.322 7.782c.675.254 1.394.38 2.118.373 2.101 0 3.567-.958 3.567-1.82 0-.573-.609-1.146-1.591-1.497h-.025L116.027.52a4.545 4.545 0 00-.565-.227A6.04 6.04 0 00113.567 0C111.464 0 110 .958 110 1.82c0 .58.649 1.176 1.655 1.52l14.93 6.035 1.128.453 6.585 2.664 1.153.467 13.864 5.608zm-37.091-9.203a5 5 0 00.902.362l9.963 3.995c1.021-1.295 1.974-2.469 2.733-3.407l-12.259-4.958c-1.579.34-2.702 1.213-2.702 2.239 0 .694.517 1.317 1.337 1.756l.026.013zm26.384-.965l.225-.275c.46-.579 1.433-1.84 1.247-3.355-.257-2.113-2.75-4.486-5.153-3.981-1.432.299-2.256 1.503-2.518 1.92-.547.713-1.179 1.54-1.864 2.44l8.063 3.25zm-21.305 13.136l-1.92-.76a6.211 6.211 0 00-1.235-.53 5.393 5.393 0 00-2.71-.183c-.669.151-1.128.466-1.258.87-.254.785.657 1.866 2.121 2.513.127.058.259.11.394.16l2.651 1.061a46.084 46.084 0 011.957-3.13zm86.564-1.904l-14.244-5.761a111.474 111.474 0 01-3.08 3.24l10.547 4.23c.386.217.799.383 1.23.492a6.76 6.76 0 001.728.22c2.257 0 4.073-1.027 4.152-2.31-.11-.034-.226-.067-.333-.11z" fill="#FF7C33"/><path d="M181.993 10.785c-6.827 9.068-10.879 14.83-11.562 16.487a3.186 3.186 0 00-.341 1.178c.161-.017.564-.121 1.475-.631.741-.42 1.508-.892 2.349-1.45l.265-.175 5.57 2.23.121.05c.147.055.282.11.451.16 2.002.617 3.7.134 3.965-.686.265-.821-.708-1.921-2.205-2.552l-.062-.025a4.062 4.062 0 00-.248-.099l-4.115-1.624.75-.614a103.587 103.587 0 006.094-5.513 103.163 103.163 0 003.982-4.115l-6.489-2.62zm22.322 7.782c.675.254 1.394.38 2.118.373 2.101 0 3.567-.958 3.567-1.82 0-.573-.609-1.146-1.591-1.497h-.025L171.027.52a4.545 4.545 0 00-.565-.227A6.04 6.04 0 00168.567 0C166.464 0 165 .958 165 1.82c0 .58.649 1.176 1.655 1.52l14.93 6.035 1.128.453 6.585 2.664 1.153.467 13.864 5.608zm-37.091-9.203a5 5 0 00.902.362l9.963 3.995c1.021-1.295 1.974-2.469 2.733-3.407l-12.259-4.958c-1.579.34-2.702 1.213-2.702 2.239 0 .694.517 1.317 1.337 1.756l.026.013zm26.384-.965l.225-.275c.46-.579 1.433-1.84 1.247-3.355-.257-2.113-2.75-4.486-5.153-3.981-1.432.299-2.256 1.503-2.518 1.92-.547.713-1.179 1.54-1.864 2.44l8.063 3.25zm-21.305 13.136l-1.92-.76a6.211 6.211 0 00-1.235-.53 5.393 5.393 0 00-2.71-.183c-.669.151-1.128.466-1.258.87-.254.785.657 1.866 2.121 2.513.127.058.259.11.394.16l2.651 1.061a46.084 46.084 0 011.957-3.13z" fill="#FF7C33"/><g opacity=".3" fill="#FF7C33"><path d="M258.867 19.631l-14.244-5.761a111.474 111.474 0 01-3.08 3.24l10.547 4.23c.386.217.799.383 1.23.492a6.76 6.76 0 001.728.22c2.257 0 4.073-1.027 4.152-2.31-.11-.034-.226-.067-.333-.11z"/><path d="M236.993 10.785c-6.827 9.068-10.879 14.83-11.562 16.487a3.186 3.186 0 00-.341 1.178c.161-.017.564-.121 1.475-.631.741-.42 1.508-.892 2.349-1.45l.265-.175 5.57 2.23.121.05c.147.055.282.11.451.16 2.002.617 3.7.134 3.965-.686.265-.821-.708-1.921-2.205-2.552l-.062-.025a4.062 4.062 0 00-.248-.099l-4.115-1.624.75-.614a103.587 103.587 0 006.094-5.513 103.163 103.163 0 003.982-4.115l-6.489-2.62zm22.322 7.782c.675.254 1.394.38 2.118.373 2.101 0 3.567-.958 3.567-1.82 0-.573-.609-1.146-1.591-1.497h-.025L226.027.52a4.545 4.545 0 00-.565-.227A6.04 6.04 0 00223.567 0C221.464 0 220 .958 220 1.82c0 .58.649 1.176 1.655 1.52l14.93 6.035 1.128.453 6.585 2.664 1.153.467 13.864 5.608zm-37.091-9.203a5 5 0 00.902.362l9.963 3.995c1.021-1.295 1.974-2.469 2.733-3.407l-12.259-4.958c-1.579.34-2.702 1.213-2.702 2.239 0 .694.517 1.317 1.337 1.756l.026.013zm26.384-.965l.225-.275c.46-.579 1.433-1.84 1.247-3.355-.257-2.113-2.75-4.486-5.153-3.981-1.432.299-2.256 1.503-2.518 1.92-.547.713-1.179 1.54-1.864 2.44l8.063 3.25zm-21.305 13.136l-1.92-.76a6.211 6.211 0 00-1.235-.53 5.393 5.393 0 00-2.71-.183c-.669.151-1.128.466-1.258.87-.254.785.657 1.866 2.121 2.513.127.058.259.11.394.16l2.651 1.061a46.084 46.084 0 011.957-3.13z"/></g></svg>